<?xml version="1.0" encoding="UTF-8" standalone="no"?>
<!DOCTYPE svg PUBLIC "-//W3C//DTD SVG 1.1//EN" "http://www.w3.org/Graphics/SVG/1.1/DTD/svg11.dtd">
<svg width="100%" height="100%" viewBox="0 0 360 54" version="1.1" xmlns="http://www.w3.org/2000/svg" xmlns:xlink="http://www.w3.org/1999/xlink" xml:space="preserve" xmlns:serif="http://www.serif.com/" style="fill-rule:evenodd;clip-rule:evenodd;stroke-linejoin:round;stroke-miterlimit:2;">
    <g transform="matrix(0.721618,0,0,0.721618,18.6027,11.9314)">
        <path d="M102.306,15.917L95.55,37.997L91.925,37.997L87.377,21.892L82.829,37.997L79.204,37.997L72.481,16.177L76.765,15.593L81.115,32.218L85.301,15.917L89.585,15.917L93.836,32.218L98.022,15.917L102.306,15.917Z" style="fill:white;fill-rule:nonzero;"/>
    </g>
    <g transform="matrix(0.721618,0,0,0.721618,19.5739,11.9314)">
        <path d="M122.772,37.997L122.08,34.718L111.336,34.718L111.336,28.516L119.344,28.516L118.652,25.171L111.336,25.171L111.336,19.229L121.124,19.229L120.465,15.917L107.085,15.917L107.085,37.997L122.772,37.997Z" style="fill:white;fill-rule:nonzero;"/>
    </g>
    <g transform="matrix(0.721618,0,0,0.721618,20.8689,11.9314)">
        <path d="M126.628,36.536C127.375,36.991 128.435,37.418 129.808,37.819C131.181,38.219 132.329,38.42 133.252,38.42C135.01,38.42 136.52,38.16 137.783,37.64C139.047,37.121 140.002,36.406 140.65,35.497C141.299,34.588 141.623,33.538 141.623,32.347C141.623,31.287 141.365,30.361 140.848,29.571C140.332,28.781 139.689,28.11 138.92,27.558C138.151,27.006 137.119,26.362 135.822,25.626L134.867,25.074L133.812,24.49C132.692,23.84 131.884,23.304 131.39,22.882C130.896,22.46 130.648,21.935 130.648,21.307C130.648,20.571 130.961,20.014 131.588,19.635C132.214,19.256 133.021,19.067 134.01,19.067C134.867,19.067 135.663,19.186 136.399,19.424C137.135,19.662 137.954,19.998 138.854,20.431L140.272,17.054C137.943,15.95 135.833,15.398 133.944,15.398C132.34,15.398 130.961,15.652 129.808,16.161C128.655,16.67 127.77,17.373 127.155,18.271C126.54,19.17 126.232,20.182 126.232,21.307C126.232,22.368 126.545,23.326 127.171,24.181C127.798,25.036 128.545,25.778 129.412,26.405C130.28,27.033 131.45,27.78 132.922,28.646L133.911,29.23C135.031,29.836 135.861,30.361 136.399,30.805C136.937,31.249 137.207,31.741 137.207,32.283C137.207,33.062 136.866,33.657 136.185,34.068C135.504,34.48 134.504,34.685 133.186,34.685C132.329,34.685 131.384,34.528 130.352,34.215C129.319,33.901 128.396,33.538 127.583,33.127L126.628,36.536Z" style="fill:white;fill-rule:nonzero;"/>
    </g>
    <g transform="matrix(0.721618,0,0,0.721618,22.6495,11.9314)">
        <path d="M162.55,15.917L144.424,15.917L144.424,19.229L151.246,19.229L151.246,37.997L155.563,37.997L155.563,19.229L163.242,19.229L162.55,15.917Z" style="fill:white;fill-rule:nonzero;"/>
    </g>
    <g transform="matrix(0.721618,0,0,0.721618,25.0776,11.9314)">
        <path d="M177.083,37.997L181.335,37.997L181.335,29.62L185.355,29.62L190.101,37.997L194.649,37.997L189.145,28.516C190.31,27.953 191.238,27.174 191.93,26.178C192.622,25.182 192.968,24.024 192.968,22.704C192.968,20.496 192.139,18.813 190.48,17.654C188.821,16.496 186.696,15.917 184.103,15.917L177.083,15.917L177.083,37.997ZM183.971,19.424C186.959,19.424 188.453,20.582 188.453,22.899C188.453,24.024 188.052,24.852 187.25,25.383C186.448,25.913 185.377,26.178 184.037,26.178L181.335,26.178L181.335,19.424L183.971,19.424Z" style="fill:white;fill-rule:nonzero;"/>
    </g>
    <g transform="matrix(0.721618,0,0,0.721618,25.9625,11.9314)">
        <rect x="199.428" y="15.917" width="4.251" height="22.08" style="fill:white;"/>
    </g>
    <g transform="matrix(0.721618,0,0,0.721618,27.4193,11.9314)">
        <path d="M212.742,15.593L208.458,16.177L217.158,37.997L220.783,37.997L229.516,15.917L225.232,15.917L219.069,32.218L212.742,15.593Z" style="fill:white;fill-rule:nonzero;"/>
    </g>
    <g transform="matrix(0.721618,0,0,0.721618,29.038,11.9314)">
        <path d="M249.982,37.997L249.29,34.718L238.546,34.718L238.546,28.516L246.555,28.516L245.863,25.171L238.546,25.171L238.546,19.229L248.334,19.229L247.675,15.917L234.295,15.917L234.295,37.997L249.982,37.997Z" style="fill:white;fill-rule:nonzero;"/>
    </g>
    <g transform="matrix(0.721618,0,0,0.721618,30.2575,11.9314)">
        <path d="M255.09,37.997L259.342,37.997L259.342,29.62L263.362,29.62L268.108,37.997L272.656,37.997L267.152,28.516C268.317,27.953 269.245,27.174 269.937,26.178C270.629,25.182 270.975,24.024 270.975,22.704C270.975,20.496 270.146,18.813 268.487,17.654C266.828,16.496 264.702,15.917 262.11,15.917L255.09,15.917L255.09,37.997ZM261.978,19.424C264.966,19.424 266.46,20.582 266.46,22.899C266.46,24.024 266.059,24.852 265.257,25.383C264.455,25.913 263.384,26.178 262.044,26.178L259.342,26.178L259.342,19.424L261.978,19.424Z" style="fill:white;fill-rule:nonzero;"/>
    </g>
    <g transform="matrix(0.721618,0,0,0.721618,32.9157,11.9314)">
        <path d="M292.759,15.917L284.026,37.997L288.31,37.997L290.287,32.802L298.79,32.802L300.8,38.322L305.085,37.738L296.384,15.917L292.759,15.917ZM297.472,29.393L291.54,29.393L294.473,21.697L297.472,29.393Z" style="fill:white;fill-rule:nonzero;"/>
    </g>
    <g transform="matrix(0.721618,0,0,0.721618,33.6201,11.9314)">
        <path d="M324.957,16.891C324.078,16.415 323.068,16.058 321.925,15.82C320.783,15.582 319.816,15.463 319.025,15.463C316.872,15.463 314.977,15.955 313.34,16.94C311.703,17.925 310.44,19.294 309.55,21.048C308.66,22.801 308.215,24.803 308.215,27.055C308.215,29.219 308.622,31.162 309.435,32.883C310.248,34.604 311.456,35.963 313.06,36.958C314.664,37.954 316.597,38.452 318.86,38.452C319.827,38.452 320.909,38.322 322.106,38.062C323.304,37.803 324.32,37.456 325.155,37.023L323.54,33.906C321.892,34.577 320.255,34.913 318.629,34.913C317.399,34.913 316.334,34.561 315.433,33.857C314.532,33.154 313.845,32.201 313.373,31C312.901,29.799 312.664,28.473 312.664,27.022C312.664,25.399 312.934,23.981 313.472,22.769C314.01,21.556 314.752,20.626 315.696,19.976C316.641,19.327 317.707,19.002 318.893,19.002C319.64,19.002 320.266,19.051 320.772,19.148C321.277,19.246 321.958,19.424 322.815,19.684L323.639,19.911L324.957,16.891Z" style="fill:white;fill-rule:nonzero;"/>
    </g>
    <g transform="matrix(0.721618,0,0,0.721618,35.1237,11.9314)">
        <path d="M336.36,15.917L327.626,37.997L331.911,37.997L333.888,32.802L342.391,32.802L344.401,38.322L348.685,37.738L339.985,15.917L336.36,15.917ZM341.073,29.393L335.14,29.393L338.074,21.697L341.073,29.393Z" style="fill:white;fill-rule:nonzero;"/>
    </g>
    <g transform="matrix(0.721618,0,0,0.721618,36.5805,11.9314)">
        <path d="M361.967,37.997C365.262,37.954 367.805,36.953 369.596,34.994C371.387,33.035 372.282,30.313 372.282,26.827C372.282,24.663 371.903,22.763 371.145,21.129C370.387,19.495 369.233,18.217 367.685,17.297C366.136,16.377 364.23,15.917 361.967,15.917L353.464,15.917L353.464,37.997L361.967,37.997ZM362.131,19.489C364.065,19.489 365.504,20.122 366.449,21.389C367.393,22.655 367.866,24.468 367.866,26.827C367.866,29.468 367.344,31.4 366.3,32.623C365.257,33.847 363.79,34.458 361.901,34.458L357.715,34.458L357.715,19.489L362.131,19.489Z" style="fill:white;fill-rule:nonzero;"/>
    </g>
    <g transform="matrix(0.721618,0,0,0.721618,37.7672,11.9314)">
        <path d="M393.571,37.997L392.879,34.718L382.136,34.718L382.136,28.516L390.144,28.516L389.452,25.171L382.136,25.171L382.136,19.229L391.924,19.229L391.265,15.917L377.884,15.917L377.884,37.997L393.571,37.997Z" style="fill:white;fill-rule:nonzero;"/>
    </g>
    <g transform="matrix(0.721618,0,0,0.721618,38.9859,11.9314)">
        <path d="M409.951,31.081L414.136,25.269L414.136,37.997L418.453,37.997L418.453,15.917L415.85,15.917L408.962,26.113L401.382,15.917L398.68,15.917L398.68,37.997L402.931,37.997L402.931,24.522L408.303,31.308L409.951,31.081Z" style="fill:white;fill-rule:nonzero;"/>
    </g>
    <g transform="matrix(0.721618,0,0,0.721618,40.6047,11.9314)">
        <path d="M434.832,37.997L434.832,29.555L442.61,15.917L438.095,15.917L432.657,25.139L427.45,15.463L423.232,16.664L430.548,29.393L430.548,37.997L434.832,37.997Z" style="fill:white;fill-rule:nonzero;"/>
    </g>
    <g transform="matrix(0.967537,0,0,0.967537,0,-9.07277e-05)">
        <path d="M5.476,0.757C20.271,0.779 20.346,8.582 27.346,13.119C37.069,19.422 40.733,18.733 46.214,20.314C44.372,26.339 44.612,31.61 47.669,35.256C53.811,42.58 53.68,50.201 49.076,55.276C50.497,55.068 51.897,54.648 53.228,53.476C56.403,48.961 57.715,42.29 53.518,36.626C50.5,32.553 47.929,26.59 51.032,20.323C40.329,17.375 35.247,15.133 30.381,10.036C24.253,3.616 18.296,-2.104 5.476,0.757ZM0,42.593C2.584,42.733 4.619,42.533 7.024,41.193C24.536,31.43 26.378,26 29.718,20.188L24.403,20.831C17.764,32.766 10.336,36.242 0,42.593ZM9.186,40.608C8.152,41.345 6.966,41.967 5.634,42.48C11.516,42.402 18.323,41.748 24.814,40.287C32.57,38.542 39.145,36.755 39.572,34.75C38.832,34.722 37.964,34.7 36.965,34.683C33.177,36.25 28.867,37.446 23.321,38.718C17.136,40.137 12.701,40.805 9.186,40.608Z" style="fill:white;"/>
    </g>
</svg>
